<svg width="13" height="18" viewBox="0 0 13 18" fill="none" xmlns="http://www.w3.org/2000/svg">
<path d="M12.1645 0.550385H1.00014C0.769564 0.550385 0.582398 0.737387 0.582398 0.968122V16.6135C0.582072 16.927 0.757162 17.2142 1.03587 17.3575C1.31474 17.5006 1.65024 17.4756 1.90464 17.2927L6.58232 13.9395L11.2602 17.2925C11.5147 17.4751 11.8499 17.4999 12.1286 17.3568C12.4071 17.2137 12.5824 16.9267 12.5824 16.6135V0.968122C12.5824 0.737387 12.3952 0.550385 12.1645 0.550385ZM11.7468 16.6134L6.82594 13.0859C6.68039 12.9817 6.48457 12.9817 6.33918 13.0859L1.4182 16.6135V1.38586H11.7468V16.6134Z" fill="white"/>
</svg>
