<svg width="44" height="41" viewBox="0 0 44 41" fill="none" xmlns="http://www.w3.org/2000/svg">
<path d="M0.502197 0.592957H39C41.7614 0.592957 44 2.83153 44 5.59296V35.593C44 38.3544 41.7614 40.593 39 40.593H0.502197V0.592957Z" fill="#FF8F27"/>
<path d="M31.9582 13.5421C31.5677 13.1515 30.9346 13.1515 30.544 13.5421L18.5634 25.5228L13.9582 20.9176C13.5677 20.5271 12.9346 20.5271 12.544 20.9176C12.1535 21.3081 12.1535 21.9413 12.544 22.3318L17.8563 27.644C18.2467 28.0345 18.8803 28.0342 19.2705 27.644L31.9582 14.9563C32.3488 14.5658 32.3487 13.9326 31.9582 13.5421Z" fill="white"/>
</svg>
