<svg width="20" height="20" viewBox="0 0 20 20" fill="none" xmlns="http://www.w3.org/2000/svg">
<path d="M8.80757 3.05176e-05C3.95121 3.05176e-05 0 3.95124 0 8.8076C0 13.6642 3.95121 17.6152 8.80757 17.6152C13.6642 17.6152 17.6151 13.6642 17.6151 8.8076C17.6151 3.95124 13.6642 3.05176e-05 8.80757 3.05176e-05ZM8.80757 15.9892C4.84769 15.9892 1.62601 12.7675 1.62601 8.80764C1.62601 4.84776 4.84769 1.62605 8.80757 1.62605C12.7675 1.62605 15.9891 4.84772 15.9891 8.8076C15.9891 12.7675 12.7675 15.9892 8.80757 15.9892Z" fill="#AEAEAE"/>
<path d="M19.7618 18.6122L15.1005 13.951C14.7829 13.6333 14.2685 13.6333 13.9509 13.951C13.6333 14.2683 13.6333 14.7832 13.9509 15.1006L18.6122 19.7618C18.771 19.9206 18.9788 20 19.187 20C19.3948 20 19.6029 19.9206 19.7618 19.7618C20.0794 19.4445 20.0794 18.9295 19.7618 18.6122Z" fill="#AEAEAE"/>
</svg>
